<?xml version="1.0" encoding="UTF-8" standalone="no" ?>
<!DOCTYPE svg PUBLIC "-//W3C//DTD SVG 1.1//EN" "http://www.w3.org/Graphics/SVG/1.1/DTD/svg11.dtd">
<svg xmlns="http://www.w3.org/2000/svg" xmlns:xlink="http://www.w3.org/1999/xlink" version="1.1" width="1080" height="1080" viewBox="0 0 1080 1080" xml:space="preserve">
<desc>Created with Fabric.js 5.2.4</desc>
<defs>
</defs>
<g transform="matrix(1 0 0 1 540 540)" id="10a9cc76-5930-4175-8092-f6d7ee253cdb"  >
<rect style="stroke: none; stroke-width: 1; stroke-dasharray: none; stroke-linecap: butt; stroke-dashoffset: 0; stroke-linejoin: miter; stroke-miterlimit: 4; fill: rgb(255,255,255); fill-rule: nonzero; opacity: 1; visibility: hidden;" vector-effect="non-scaling-stroke"  x="-540" y="-540" rx="0" ry="0" width="1080" height="1080" />
</g>
<g transform="matrix(1 0 0 1 540 540)" id="8b61c349-93db-42cf-8242-a2e5b03f50de"  >
</g>
<g transform="matrix(10.09 0 0 10.09 540 540)"  >
<g style=""   >
		<g transform="matrix(1 0 0 1 -47.25 7.25)" id="Fill-1"  >
<path style="stroke: none; stroke-width: 1; stroke-dasharray: none; stroke-linecap: butt; stroke-dashoffset: 0; stroke-linejoin: miter; stroke-miterlimit: 4; fill: rgb(0,0,0); fill-rule: evenodd; opacity: 1;" vector-effect="non-scaling-stroke"  transform=" translate(-6.25, -5.8)" d="M 11.8216 7.4081 C 11.4806 8.3521 10.9026 9.1381 10.1046 9.7441 C 9.3016 10.3531 8.3086 10.7561 7.1516 10.9391 C 6.0066 11.1211 4.9446 11.0451 3.9996 10.7131 C 3.0586 10.3831 2.2676 9.8141 1.6516 9.0221 C 1.0326 8.2271 0.6246 7.2261 0.4366 6.0501 C 0.3196 5.3051 0.3166 4.5571 0.4286 3.8281 C 0.5326 3.1571 0.7236 2.5841 0.9976 2.1241 L 2.9956 2.6291 C 2.5166 3.6511 2.3526 4.6681 2.5086 5.6531 C 2.6666 6.6411 3.1086 7.3621 3.8276 7.7961 C 4.5356 8.2231 5.5066 8.3441 6.7106 8.1521 C 7.9256 7.9601 8.8186 7.5441 9.3646 6.9181 C 9.9186 6.2821 10.1206 5.4591 9.9636 4.4701 C 9.8056 3.4841 9.3366 2.5681 8.5646 1.7451 L 10.3076 0.6461 C 10.7106 0.9991 11.0696 1.4841 11.3756 2.0911 C 11.7096 2.7511 11.9376 3.4621 12.0556 4.2061 C 12.2426 5.3831 12.1646 6.4601 11.8216 7.4081 M 11.6856 1.9341 C 11.3336 1.2371 10.9116 0.6861 10.4316 0.2981 L 10.3356 0.2201 L 8.0146 1.6811 L 8.1686 1.8351 C 8.9766 2.6451 9.4656 3.5501 9.6206 4.5251 C 9.7616 5.4201 9.5926 6.1281 9.1026 6.6891 C 8.6116 7.2531 7.7886 7.6301 6.6556 7.8091 C 5.5346 7.9871 4.6426 7.8841 4.0066 7.4991 C 3.3806 7.1211 2.9916 6.4811 2.8516 5.5991 C 2.6976 4.6251 2.8826 3.6131 3.3996 2.5921 L 3.4976 2.3981 L 0.8396 1.7261 L 0.7716 1.8301 C 0.4356 2.3481 0.2056 3.0031 0.0866 3.7751 C -0.0324 4.5411 -0.0294 5.3241 0.0946 6.1031 C 0.2916 7.3401 0.7226 8.3931 1.3776 9.2351 C 2.0366 10.0811 2.8796 10.6881 3.8846 11.0401 C 4.5336 11.2681 5.2316 11.3831 5.9706 11.3831 C 6.3716 11.3831 6.7836 11.3481 7.2066 11.2821 C 8.4206 11.0891 9.4666 10.6651 10.3136 10.0201 C 11.1666 9.3741 11.7836 8.5341 12.1476 7.5261 C 12.5096 6.5221 12.5936 5.3871 12.3976 4.1511 C 12.2746 3.3721 12.0346 2.6261 11.6856 1.9341" stroke-linecap="round" />
</g>
		<g transform="matrix(1 0 0 1 -46.69 -8.39)" id="Fill-4"  >
<path style="stroke: none; stroke-width: 1; stroke-dasharray: none; stroke-linecap: butt; stroke-dashoffset: 0; stroke-linejoin: miter; stroke-miterlimit: 4; fill: rgb(0,0,0); fill-rule: evenodd; opacity: 1;" vector-effect="non-scaling-stroke"  transform=" translate(-6.81, -45.11)" d="M 0.4281 46.9039 L 0.9661 44.1849 L 10.0791 45.9879 L 11.0491 41.0899 L 13.1821 41.5109 L 11.6751 49.1299 L 0.4281 46.9039 Z M 13.5901 41.2389 L 10.7761 40.6809 L 9.8071 45.5809 L 0.6931 43.7769 L 0.0201 47.1769 L 11.9491 49.5369 L 13.5901 41.2389 Z" stroke-linecap="round" />
</g>
		<g transform="matrix(1 0 0 1 -38.8 -22.74)" id="Fill-6"  >
<path style="stroke: none; stroke-width: 1; stroke-dasharray: none; stroke-linecap: butt; stroke-dashoffset: 0; stroke-linejoin: miter; stroke-miterlimit: 4; fill: rgb(0,0,0); fill-rule: evenodd; opacity: 1;" vector-effect="non-scaling-stroke"  transform=" translate(-14.7, -30.76)" d="M 7.7289 26.2448 L 8.9219 24.3548 L 21.4889 25.9238 L 20.0569 28.1908 L 17.4369 27.7738 L 14.5179 32.4008 L 16.0229 34.5868 L 14.5649 36.8968 L 7.7289 26.2448 Z M 16.4379 34.5778 L 14.9329 32.3928 L 17.6079 28.1528 L 20.2289 28.5698 L 22.0729 25.6468 L 8.7459 23.9828 L 7.3179 26.2468 L 14.5679 37.5438 L 16.4379 34.5778 Z" stroke-linecap="round" />
</g>
		<g transform="matrix(1 0 0 1 -40.54 -24.84)" id="Fill-8"  >
<path style="stroke: none; stroke-width: 1; stroke-dasharray: none; stroke-linecap: butt; stroke-dashoffset: 0; stroke-linejoin: miter; stroke-miterlimit: 4; fill: rgb(0,0,0); fill-rule: evenodd; opacity: 1;" vector-effect="non-scaling-stroke"  transform=" translate(-12.96, -28.66)" d="M 13.2806 29.9782 L 11.3596 27.1742 L 14.7176 27.7022 L 13.2806 29.9782 Z M 10.6186 26.7072 L 13.2936 30.6092 L 15.2916 27.4402 L 10.6186 26.7072 Z" stroke-linecap="round" />
</g>
		<g transform="matrix(1 0 0 1 -27.25 -37.91)" id="Fill-10"  >
<path style="stroke: none; stroke-width: 1; stroke-dasharray: none; stroke-linecap: butt; stroke-dashoffset: 0; stroke-linejoin: miter; stroke-miterlimit: 4; fill: rgb(0,0,0); fill-rule: evenodd; opacity: 1;" vector-effect="non-scaling-stroke"  transform=" translate(-26.25, -15.59)" d="M 26.3578 12.8483 L 26.3578 12.8483 C 26.2448 13.1523 25.9268 13.4883 25.4158 13.8483 L 23.9568 14.8733 L 22.6958 13.0803 L 24.1558 12.0553 C 24.6758 11.6893 25.1008 11.5003 25.4188 11.4953 C 25.7148 11.4893 25.9678 11.6463 26.1958 11.9703 C 26.4108 12.2763 26.4638 12.5633 26.3578 12.8483 M 29.5908 13.9293 C 29.3818 13.9033 29.1788 13.9043 28.9838 13.9353 C 29.3178 13.3823 29.4918 12.7983 29.5038 12.1943 C 29.5188 11.4393 29.2848 10.7123 28.8068 10.0343 C 28.1258 9.0633 27.2778 8.5233 26.2878 8.4293 C 25.3088 8.3383 24.2058 8.7163 23.0088 9.5573 L 18.3748 12.8153 L 25.3658 22.7633 L 28.1608 20.7983 L 25.5178 17.0383 L 26.2988 16.4903 C 26.7738 16.1573 27.1688 16.1013 27.5038 16.3203 L 31.1118 18.7253 L 34.1188 16.6113 L 30.7448 14.3963 C 30.3618 14.1363 29.9728 13.9793 29.5908 13.9293" stroke-linecap="round" />
</g>
		<g transform="matrix(1 0 0 1 -14.43 -45.08)" id="Fill-12"  >
<polygon style="stroke: none; stroke-width: 1; stroke-dasharray: none; stroke-linecap: butt; stroke-dashoffset: 0; stroke-linejoin: miter; stroke-miterlimit: 4; fill: rgb(0,0,0); fill-rule: evenodd; opacity: 1;" vector-effect="non-scaling-stroke"  points="3.48,5.28 -0.18,-6.32 -3.48,-5.28 0.18,6.32 " />
</g>
		<g transform="matrix(1 0 0 1 -0.38 -47.27)" id="Fill-14"  >
<path style="stroke: none; stroke-width: 1; stroke-dasharray: none; stroke-linecap: butt; stroke-dashoffset: 0; stroke-linejoin: miter; stroke-miterlimit: 4; fill: rgb(0,0,0); fill-rule: evenodd; opacity: 1;" vector-effect="non-scaling-stroke"  transform=" translate(-53.12, -6.23)" d="M 52.9496 12.4596 C 54.6046 12.4556 55.9116 12.1076 56.8326 11.4286 C 57.7686 10.7366 58.2426 9.7756 58.2386251 8.5726 C 58.2376 7.9376 58.0996 7.3806 57.8296 6.9186 C 57.5586 6.4566 57.0966 6.0506 56.4556 5.7116 C 55.8306 5.3816 54.9636 5.0966 53.8786 4.8636 C 53.2286 4.7256 52.7346 4.5926 52.4096 4.4696 C 52.0296 4.3246 51.8656 4.2026 51.7946 4.1246 C 51.7026 4.0246 51.6576 3.9006 51.6566 3.7456 C 51.6556 3.4416 51.7976 3.2046 52.0886 3.0206 C 52.4006 2.8216 52.8266 2.7216 53.3546 2.7206 C 53.9016 2.7156 54.4716 2.8126 55.0256 2.9966 C 55.5836 3.1836 56.1216 3.4556 56.6266 3.8086 L 56.8016 3.9296 L 57.8916 1.4076 L 57.7946 1.3246 C 57.3236 0.9246 56.6676 0.5996 55.8456 0.3576 C 55.0286 0.1176 54.1846 -0.0134 53.3146 0.0016 C 52.3456 0.0036 51.4686 0.1756 50.7086 0.5116 C 49.9426 0.8516 49.3396 1.3306 48.9146 1.9366 C 48.4876 2.5446 48.2726 3.2336 48.2746 3.9866 C 48.2766 4.6446 48.4106 5.2136 48.6756 5.6796 C 48.9396 6.1486 49.4026 6.5596 50.0506 6.8976 C 50.6816 7.2296 51.5756 7.5086 52.7026 7.7286 C 53.5636 7.9086 54.1546 8.0936 54.4586 8.2746 C 54.7256 8.4356 54.8556 8.6276 54.8566 8.8626 C 54.8576 9.1276 54.7156 9.3296 54.4216 9.4816 C 54.0946 9.6516 53.6076 9.7386 52.9746 9.7396 L 52.9586 9.7396 C 52.3316 9.7396 51.6986 9.6466 51.0756 9.4616 C 50.4466 9.2756 49.8446 9.0026 49.2836 8.6486 L 49.1126 8.5416 L 48.0036 11.0626 L 48.1156 11.1446 C 48.6726 11.5516 49.4016 11.8776 50.2826 12.1116 C 51.1486 12.3426 52.0396 12.4596 52.9286 12.4596 L 52.9496 12.4596 Z" stroke-linecap="round" />
</g>
		<g transform="matrix(1 0 0 1 16.53 -44.11)" id="Fill-16"  >
<path style="stroke: none; stroke-width: 1; stroke-dasharray: none; stroke-linecap: butt; stroke-dashoffset: 0; stroke-linejoin: miter; stroke-miterlimit: 4; fill: rgb(0,0,0); fill-rule: evenodd; opacity: 1;" vector-effect="non-scaling-stroke"  transform=" translate(-70.03, -9.39)" d="M 71.8011 15.5133 C 72.9231 15.2023 73.7091 14.4753 74.1371 13.3503 C 74.3641 12.7563 74.4341 12.1873 74.3471 11.6593 C 74.2591 11.1313 73.9731 10.5863 73.4961 10.0403 C 73.0301 9.5073 72.3221 8.9313 71.3931 8.3263 C 70.8341 7.9633 70.4201 7.6623 70.1631 7.4323 C 69.8611 7.1613 69.7501 6.9893 69.7111 6.8913 C 69.6611 6.7653 69.6631 6.6323 69.7191 6.4873 C 69.8271 6.2033 70.0431 6.0323 70.3811 5.9643 C 70.7431 5.8913 71.1781 5.9503 71.6721 6.1373 C 72.1891 6.3343 72.6801 6.6223 73.1331 6.9933 C 73.5851 7.3673 73.9901 7.8143 74.3371 8.3253 L 74.4561 8.5003 L 76.3781 6.5363 L 76.3171 6.4233 C 76.0201 5.8813 75.5241 5.3433 74.8431 4.8243 C 74.1671 4.3083 73.4141 3.8913 72.6081 3.5843 C 71.7011 3.2393 70.8191 3.0843 69.9901 3.1273 C 69.1541 3.1713 68.4191 3.4033 67.8071 3.8163 C 67.1901 4.2313 66.7421 4.7983 66.4751 5.5013 C 66.2401 6.1173 66.1621 6.6973 66.2411 7.2263 C 66.3221 7.7593 66.6081 8.3073 67.0901 8.8553 C 67.5621 9.3913 68.2961 9.9713 69.2691 10.5793 C 70.0101 11.0583 70.4951 11.4423 70.7131 11.7193 C 70.9051 11.9653 70.9591 12.1923 70.8751 12.4113 C 70.7811 12.6583 70.5751 12.7963 70.2471 12.8333 C 69.8831 12.8743 69.3971 12.7823 68.8051 12.5573 C 68.2131 12.3313 67.6491 12.0153 67.1291 11.6173 C 66.6091 11.2173 66.1441 10.7453 65.7471 10.2153 L 65.6271 10.0543 L 63.6881 12.0103 L 63.7641 12.1273 C 64.1381 12.7073 64.7021 13.2733 65.4411 13.8073 C 66.1731 14.3373 66.9691 14.7683 67.8071 15.0863 C 68.8271 15.4753 69.7601 15.6693 70.5921 15.6693 C 71.0221 15.6693 71.4261 15.6173 71.8011 15.5133" stroke-linecap="round" />
</g>
		<g transform="matrix(1 0 0 1 31.32 -35.34)" id="Fill-18"  >
<polygon style="stroke: none; stroke-width: 1; stroke-dasharray: none; stroke-linecap: butt; stroke-dashoffset: 0; stroke-linejoin: miter; stroke-miterlimit: 4; fill: rgb(0,0,0); fill-rule: evenodd; opacity: 1;" vector-effect="non-scaling-stroke"  points="1.1,5.41 -2.96,1.85 -1.59,0.29 2.2,3.61 4,1.56 0.21,-1.77 1.45,-3.18 5.5,0.38 7.31,-1.68 0.7,-7.46 -7.31,1.68 -0.71,7.46 " />
</g>
		<g transform="matrix(1 0 0 1 38.5 -18.87)" id="Fill-20"  >
<polygon style="stroke: none; stroke-width: 1; stroke-dasharray: none; stroke-linecap: butt; stroke-dashoffset: 0; stroke-linejoin: miter; stroke-miterlimit: 4; fill: rgb(0,0,0); fill-rule: evenodd; opacity: 1;" vector-effect="non-scaling-stroke"  points="-0.77,2.32 2.31,0.8 0.77,-2.32 -2.31,-0.8 " />
</g>
		<g transform="matrix(1 0 0 1 47.31 -0.66)" id="Fill-22"  >
<polygon style="stroke: none; stroke-width: 1; stroke-dasharray: none; stroke-linecap: butt; stroke-dashoffset: 0; stroke-linejoin: miter; stroke-miterlimit: 4; fill: rgb(0,0,0); fill-rule: evenodd; opacity: 1;" vector-effect="non-scaling-stroke"  points="-1.47,-3.05 -6.1,-1 -6.06,1.2 -1.31,3.07 -6.02,3.17 -5.97,6.24 6.19,6.02 6.14,3.31 -1.72,0.05 6.02,-3.51 5.97,-6.24 -6.19,-6.02 -6.13,-2.97 " />
</g>
		<g transform="matrix(1 0 0 1 44.96 14.99)" id="Fill-25"  >
<polygon style="stroke: none; stroke-width: 1; stroke-dasharray: none; stroke-linecap: butt; stroke-dashoffset: 0; stroke-linejoin: miter; stroke-miterlimit: 4; fill: rgb(0,0,0); fill-rule: evenodd; opacity: 1;" vector-effect="non-scaling-stroke"  points="-5.24,-3.54 -6.32,-0.24 5.07,3.48 5.24,3.54 6.32,0.24 -5.08,-3.48 " />
</g>
		<g transform="matrix(1 0 0 1 37.84 28.63)" id="Fill-27"  >
<path style="stroke: none; stroke-width: 1; stroke-dasharray: none; stroke-linecap: butt; stroke-dashoffset: 0; stroke-linejoin: miter; stroke-miterlimit: 4; fill: rgb(0,0,0); fill-rule: evenodd; opacity: 1;" vector-effect="non-scaling-stroke"  transform=" translate(-91.34, -82.13)" d="M 94.972 77.1559 C 93.971 76.4429 92.928 76.0119 91.871 75.8779 C 90.809 75.7409 89.781 75.9079 88.815 76.3719 C 87.853 76.8329 86.997 77.5839 86.271 78.6029 C 85.814 79.2439 85.462 79.9439 85.226 80.6839 C 84.988 81.4279 84.903 82.1169 84.973 82.7299 L 84.987 82.8529 L 87.666 83.4369 L 87.664 83.2199 C 87.656 82.0749 87.942 81.0869 88.514 80.2839 C 89.039 79.5469 89.657 79.1599 90.401 79.1019 C 91.144 79.0449 91.997 79.3529 92.931 80.0189 C 93.856 80.6779 94.418 81.3779 94.603 82.0969 C 94.784 82.8059 94.614 83.5349 94.095 84.2609 C 93.522 85.0649 92.681 85.6579 91.596 86.0219 L 91.39 86.0929 L 92.817 88.4339 L 92.938 88.4079 C 93.54 88.2729 94.163 87.9679 94.789 87.5009 C 95.41 87.0369 95.957 86.4749 96.415 85.8339 C 97.141 84.8149 97.572 83.7609 97.695 82.7019 C 97.818 81.6369 97.642 80.6119 97.172 79.6569 C 96.704 78.7039 95.963 77.8629 94.972 77.1559" stroke-linecap="round" />
</g>
		<g transform="matrix(1 0 0 1 25.03 40.47)" id="Fill-29"  >
<polygon style="stroke: none; stroke-width: 1; stroke-dasharray: none; stroke-linecap: butt; stroke-dashoffset: 0; stroke-linejoin: miter; stroke-miterlimit: 4; fill: rgb(0,0,0); fill-rule: evenodd; opacity: 1;" vector-effect="non-scaling-stroke"  points="-1.35,-6.33 1.19,-2.28 -2.57,0.07 -5.1,-3.98 -7.98,-2.18 -1.53,8.13 1.35,6.33 -1.09,2.43 2.67,0.08 5.1,3.98 7.98,2.17 1.53,-8.13 " />
</g>
		<g transform="matrix(1 0 0 1 6.16 46.73)" id="Fill-31"  >
<path style="stroke: none; stroke-width: 1; stroke-dasharray: none; stroke-linecap: butt; stroke-dashoffset: 0; stroke-linejoin: miter; stroke-miterlimit: 4; fill: rgb(0,0,0); fill-rule: evenodd; opacity: 1;" vector-effect="non-scaling-stroke"  transform=" translate(-59.66, -100.23)" d="M 61.7416 99.5153 L 60.8876 102.8053 L 59.0816 99.9253 L 61.7416 99.5153 Z M 62.4796 96.6843 L 57.5246 97.4493 L 56.1206 95.1973 L 52.7036 95.7233 L 60.1326 106.7803 L 60.1936 106.8713 L 62.8386 106.4643 L 66.6066 93.5803 L 63.1416 94.1153 L 62.4796 96.6843 Z" stroke-linecap="round" />
</g>
		<g transform="matrix(1 0 0 1 -11.13 46.27)" id="Fill-33"  >
<path style="stroke: none; stroke-width: 1; stroke-dasharray: none; stroke-linecap: butt; stroke-dashoffset: 0; stroke-linejoin: miter; stroke-miterlimit: 4; fill: rgb(0,0,0); fill-rule: evenodd; opacity: 1;" vector-effect="non-scaling-stroke"  transform=" translate(-6.37, -7.82)" d="M 6.8324 11.5703 L 5.1004 11.1453 C 4.4824 10.9953 4.0614 10.7993 3.8484 10.5623 C 3.6504 10.3423 3.6004 10.0493 3.6934 9.6653 C 3.7834 9.3003 3.9644 9.0723 4.2484 8.9663 C 4.3814 8.9163 4.5424 8.8903 4.7334 8.8903 C 4.9804 8.8903 5.2774 8.9323 5.6214 9.0163 L 7.3534 9.4413 L 6.8324 11.5703 Z M 7.9574 6.8413 L 7.0294 6.6143 C 6.4674 6.4753 6.1664 6.2153 6.1094 5.8193 L 5.5474 1.5193 L 1.9784 0.6443 L 2.5284 4.6433 C 2.5854 5.1023 2.7224 5.4983 2.9364 5.8193 C 3.0534 5.9943 3.1874 6.1453 3.3404 6.2723 C 2.7044 6.3853 2.1494 6.6373 1.6864 7.0263 C 1.1074 7.5103 0.7154 8.1663 0.5184 8.9723 C 0.2354 10.1253 0.3864 11.1183 0.9674 11.9243 C 1.5414 12.7233 2.5534 13.3043 3.9734 13.6523 L 9.4754 15.0003 L 12.3684 3.1903 L 9.0504 2.3783 L 7.9574 6.8413 Z" stroke-linecap="round" />
</g>
		<g transform="matrix(1 0 0 1 -27.37 39.48)" id="Fill-36"  >
<path style="stroke: none; stroke-width: 1; stroke-dasharray: none; stroke-linecap: butt; stroke-dashoffset: 0; stroke-linejoin: miter; stroke-miterlimit: 4; fill: rgb(0,0,0); fill-rule: evenodd; opacity: 1;" vector-effect="non-scaling-stroke"  transform=" translate(-26.13, -92.98)" d="M 23.8353 95.0163 C 22.9563 94.3693 22.4523 93.6623 22.3363 92.9153 C 22.2203 92.1713 22.4863 91.3533 23.1273 90.4843 C 23.7793 89.6013 24.4873 89.0963 25.2333 88.9843 C 25.3423 88.9673 25.4523 88.9593 25.5643 88.9593 C 26.2223 88.9593 26.9343 89.2403 27.6883 89.7963 L 28.7493 90.5793 L 24.8973 95.8003 L 23.8353 95.0163 Z M 25.9763 85.9083 C 24.9053 85.7193 23.8773 85.8433 22.9213 86.2773 C 21.9693 86.7083 21.1093 87.4383 20.3663 88.4453 C 19.6293 89.4443 19.1923 90.4763 19.0693 91.5123 C 18.9443 92.5533 19.1333 93.5713 19.6293 94.5373 C 20.1213 95.4973 20.9113 96.3823 21.9783 97.1703 L 26.0023 100.1393 L 33.1193 90.4953 L 33.2223 90.3563 L 29.1973 87.3863 C 28.1223 86.5923 27.0383 86.0953 25.9763 85.9083 L 25.9763 85.9083 Z" stroke-linecap="round" />
</g>
		<g transform="matrix(1 0 0 1 -37.84 21.21)" id="Fill-38"  >
<polygon style="stroke: none; stroke-width: 1; stroke-dasharray: none; stroke-linecap: butt; stroke-dashoffset: 0; stroke-linejoin: miter; stroke-miterlimit: 4; fill: rgb(0,0,0); fill-rule: evenodd; opacity: 1;" vector-effect="non-scaling-stroke"  points="-2.35,-0.69 -0.65,2.36 2.35,0.68 0.65,-2.36 " />
</g>
		<g transform="matrix(1 0 0 1 -0.17 0.22)" id="Fill-40"  >
<polygon style="stroke: none; stroke-width: 1; stroke-dasharray: none; stroke-linecap: butt; stroke-dashoffset: 0; stroke-linejoin: miter; stroke-miterlimit: 4; fill: rgb(0,0,0); fill-rule: evenodd; opacity: 1;" vector-effect="non-scaling-stroke"  points="-1.74,1.72 1.74,1.72 1.74,-1.72 -1.74,-1.72 " />
</g>
</g>
</g>
</svg>